<svg width="35" height="35" viewBox="0 0 35 35" fill="none" xmlns="http://www.w3.org/2000/svg">
<path d="M24.7915 30.9897H10.2082C4.88525 30.9897 1.82275 27.9272 1.82275 22.6042V12.3959C1.82275 7.073 4.88525 4.0105 10.2082 4.0105H24.7915C30.1144 4.0105 33.1769 7.073 33.1769 12.3959V22.6042C33.1769 27.9272 30.1144 30.9897 24.7915 30.9897ZM10.2082 6.198C6.03734 6.198 4.01025 8.22508 4.01025 12.3959V22.6042C4.01025 26.7751 6.03734 28.8022 10.2082 28.8022H24.7915C28.9623 28.8022 30.9894 26.7751 30.9894 22.6042V12.3959C30.9894 8.22508 28.9623 6.198 24.7915 6.198H10.2082Z" fill="#0D1DB1"/>
<path d="M17.4987 18.7658C16.2737 18.7658 15.0341 18.3866 14.0862 17.6137L9.52164 13.9679C9.30938 13.7836 9.17647 13.5244 9.15062 13.2445C9.12477 12.9646 9.20798 12.6855 9.3829 12.4654C9.55782 12.2454 9.81094 12.1013 10.0895 12.0634C10.368 12.0254 10.6504 12.0964 10.8779 12.2616L15.4425 15.9074C16.5508 16.797 18.4321 16.797 19.5404 15.9074L24.105 12.2616C24.5716 11.8824 25.2716 11.9554 25.6362 12.4366C26.0154 12.9033 25.9425 13.6033 25.4612 13.9679L20.8966 17.6137C19.9633 18.3866 18.7237 18.7658 17.4987 18.7658V18.7658Z" fill="#0D1DB1"/>
</svg>
