<svg width="22" height="27" viewBox="0 0 22 27" fill="none" xmlns="http://www.w3.org/2000/svg">
<path d="M10.9931 16.0401C8.49516 16.0401 6.45459 14.0113 6.45459 11.5016C6.45459 8.99197 8.49516 6.97485 10.9931 6.97485C13.491 6.97485 15.5316 9.0037 15.5316 11.5134C15.5316 14.023 13.491 16.0401 10.9931 16.0401V16.0401ZM10.9931 8.73397C9.46854 8.73397 8.2137 9.97707 8.2137 11.5134C8.2137 13.0497 9.45681 14.2928 10.9931 14.2928C12.5294 14.2928 13.7725 13.0497 13.7725 11.5134C13.7725 9.97707 12.5177 8.73397 10.9931 8.73397V8.73397Z" fill="#F72828"/>
<path d="M10.9964 26.1129C9.18968 26.1094 7.45426 25.4077 6.15295 24.1544C2.69337 20.8238 -1.12977 15.5113 0.312701 9.19022C1.61444 3.45551 6.62205 0.887207 10.9964 0.887207H11.0081C15.3824 0.887207 20.39 3.45551 21.6918 9.20195C23.1225 15.523 19.2994 20.8238 15.8398 24.1544C14.5385 25.4077 12.8031 26.1094 10.9964 26.1129V26.1129ZM10.9964 2.64632C7.5837 2.64632 3.19765 4.46407 2.03663 9.57722C0.77007 15.1008 4.24139 19.8622 7.38433 22.8761C8.35304 23.8182 9.651 24.3452 11.0022 24.3452C12.3535 24.3452 13.6514 23.8182 14.6201 22.8761C17.7514 19.8622 21.2227 15.1008 19.9796 9.57722C18.8068 4.46407 14.4091 2.64632 10.9964 2.64632V2.64632Z" fill="#F72828"/>
</svg>
