<svg width="20" height="20" viewBox="0 0 20 20" fill="none" xmlns="http://www.w3.org/2000/svg">
<path d="M14.996 19.7413C13.9602 19.7413 12.8693 19.4938 11.7418 19.0171C10.6418 18.5496 9.53266 17.908 8.451 17.1288C7.3785 16.3405 6.34266 15.4605 5.36183 14.498C4.39016 13.5171 3.51016 12.4813 2.731 11.418C1.94266 10.318 1.31016 9.21796 0.860996 8.15463C0.384329 7.01796 0.145996 5.91796 0.145996 4.88213C0.145996 4.16713 0.274329 3.48879 0.521829 2.85629C0.778496 2.20546 1.191 1.60046 1.75016 1.07796C2.456 0.381292 3.26266 0.032959 4.12433 0.032959C4.48183 0.032959 4.8485 0.115459 5.16016 0.262126C5.51766 0.427126 5.82016 0.674626 6.04016 1.00463L8.16683 4.00213C8.35933 4.26796 8.506 4.52463 8.60683 4.78129C8.726 5.05629 8.79016 5.33129 8.79016 5.59713C8.79016 5.94546 8.68933 6.28463 8.49683 6.60546C8.32835 6.89181 8.12174 7.15393 7.88266 7.38463L7.25933 8.03546C7.2685 8.06296 7.27766 8.08129 7.28683 8.09963C7.39683 8.29213 7.61683 8.62213 8.0385 9.11713C8.48766 9.63046 8.90933 10.098 9.331 10.5288C9.87183 11.0605 10.321 11.4821 10.7427 11.8305C11.2652 12.2705 11.6043 12.4905 11.806 12.5913L11.7877 12.6371L12.4568 11.9771C12.741 11.693 13.016 11.4821 13.2818 11.3446C13.786 11.033 14.4277 10.978 15.0693 11.2438C15.3077 11.3446 15.5643 11.4821 15.8393 11.6746L18.8827 13.838C19.2218 14.0671 19.4693 14.3605 19.616 14.7088C19.7535 15.0571 19.8177 15.378 19.8177 15.6988C19.8177 16.1388 19.7168 16.5788 19.5243 16.9913C19.3318 17.4038 19.0935 17.7613 18.791 18.0913C18.2685 18.6688 17.7002 19.0813 17.0402 19.3471C16.4077 19.6038 15.7202 19.7413 14.996 19.7413V19.7413ZM4.12433 1.40796C3.62016 1.40796 3.15266 1.62796 2.7035 2.06796C2.28183 2.46213 1.9885 2.89296 1.80516 3.36046C1.61266 3.83713 1.521 4.34129 1.521 4.88213C1.521 5.73463 1.72266 6.66046 2.126 7.61379C2.5385 8.58546 3.116 9.59379 3.84933 10.6021C4.58266 11.6105 5.41683 12.5913 6.3335 13.5171C7.25016 14.4246 8.24016 15.268 9.25766 16.0105C10.2477 16.7346 11.2652 17.3213 12.2735 17.743C13.841 18.4121 15.3077 18.568 16.5177 18.0638C16.9852 17.8713 17.3977 17.578 17.7735 17.1563C17.9843 16.9271 18.1493 16.6796 18.2868 16.3863C18.3968 16.1571 18.4518 15.9188 18.4518 15.6805C18.4518 15.5338 18.4243 15.3871 18.351 15.2221C18.2924 15.1086 18.2036 15.0134 18.0943 14.9471L15.051 12.7838C14.8677 12.6555 14.7027 12.5638 14.5468 12.4996C14.3452 12.4171 14.2627 12.3346 13.951 12.5271C13.7677 12.6188 13.6027 12.7563 13.4193 12.9396L12.7227 13.6271C12.3652 13.9755 11.8152 14.058 11.3935 13.9021L11.146 13.7921C10.7702 13.5905 10.3302 13.2788 9.84433 12.8663C9.40433 12.4905 8.92766 12.0505 8.35016 11.4821C7.901 11.0238 7.45183 10.538 6.98433 9.99713C6.5535 9.49296 6.24183 9.06213 6.04933 8.70463L5.93933 8.42963C5.88433 8.21879 5.866 8.09963 5.866 7.97129C5.866 7.64129 5.98516 7.34796 6.21433 7.11879L6.90183 6.40379C7.08516 6.22046 7.22266 6.04629 7.31433 5.89046C7.38766 5.77129 7.41516 5.67046 7.41516 5.57879C7.41516 5.50546 7.38766 5.39546 7.34183 5.28546C7.27766 5.13879 7.17683 4.97379 7.0485 4.79963L4.92183 1.79296C4.83602 1.6698 4.71895 1.57171 4.58266 1.50879C4.436 1.44463 4.28016 1.40796 4.12433 1.40796ZM11.7877 12.6463L11.641 13.2696L11.8885 12.628C11.8427 12.6188 11.806 12.628 11.7877 12.6463Z" fill="#38577B"/>
</svg>
