<svg width="33" height="31" viewBox="0 0 33 31" fill="none" xmlns="http://www.w3.org/2000/svg">
<path d="M24 25.2722H18L11.325 29.7122C11.0997 29.8624 10.8379 29.9486 10.5675 29.9616C10.2971 29.9746 10.0282 29.914 9.78953 29.7862C9.55086 29.6584 9.35136 29.4682 9.21231 29.2359C9.07327 29.0036 8.99989 28.7379 9 28.4672V25.2722C4.5 25.2722 1.5 22.2722 1.5 17.7722V8.77222C1.5 4.27222 4.5 1.27222 9 1.27222H24C28.5 1.27222 31.5 4.27222 31.5 8.77222V17.7722C31.5 22.2722 28.5 25.2722 24 25.2722Z" stroke="#38577B" stroke-width="1.5" stroke-miterlimit="10" stroke-linecap="round" stroke-linejoin="round"/>
<path d="M16.5003 14.6667V14.3517C16.5003 13.3317 17.1303 12.7917 17.7603 12.3567C18.3753 11.9367 18.9903 11.3967 18.9903 10.4067C18.9903 9.02675 17.8803 7.91675 16.5003 7.91675C15.1203 7.91675 14.0103 9.02675 14.0103 10.4067M16.4928 18.2517H16.5078" stroke="#38577B" stroke-width="1.5" stroke-linecap="round" stroke-linejoin="round"/>
</svg>
