<svg width="35" height="35" viewBox="0 0 35 35" fill="none" xmlns="http://www.w3.org/2000/svg">
<path d="M17.4998 2.91675C13.6321 2.91675 9.92277 4.4532 7.18786 7.18811C4.45296 9.92301 2.9165 13.6323 2.9165 17.5001C2.9165 21.3678 4.45296 25.0772 7.18786 27.8121C9.92277 30.547 13.6321 32.0834 17.4998 32.0834C21.3676 32.0834 25.0769 30.547 27.8118 27.8121C30.5467 25.0772 32.0832 21.3678 32.0832 17.5001C32.0832 13.6323 30.5467 9.92301 27.8118 7.18811C25.0769 4.4532 21.3676 2.91675 17.4998 2.91675V2.91675Z" fill="#29B6F6"/>
<path d="M24.755 10.9374L22.0236 24.8835C22.0236 24.8835 21.9062 25.5208 21.1158 25.5208C20.6958 25.5208 20.4792 25.321 20.4792 25.321L14.5628 20.4115L11.668 18.9524L7.95286 17.9644C7.95286 17.9644 7.2915 17.7734 7.2915 17.2265C7.2915 16.7708 7.97182 16.5535 7.97182 16.5535L23.5147 10.3789C23.514 10.3782 23.9894 10.2075 24.3358 10.2083C24.5487 10.2083 24.7915 10.2994 24.7915 10.5728C24.7915 10.7551 24.755 10.9374 24.755 10.9374Z" fill="white"/>
<path d="M16.7709 22.2433L14.2728 24.7035C14.2728 24.7035 14.1642 24.7873 14.0191 24.791C13.9687 24.7924 13.9148 24.7844 13.8594 24.7596L14.5623 20.4102L16.7709 22.2433Z" fill="#B0BEC5"/>
<path d="M21.7997 13.2678C21.6765 13.1074 21.449 13.0783 21.2886 13.2L11.6665 18.9583C11.6665 18.9583 13.2021 23.2545 13.4362 23.9983C13.671 24.7427 13.8591 24.7602 13.8591 24.7602L14.562 20.4108L21.7312 13.7783C21.8916 13.6565 21.9215 13.4283 21.7997 13.2678Z" fill="#CFD8DC"/>
</svg>
