<svg width="35" height="35" viewBox="0 0 35 35" fill="none" xmlns="http://www.w3.org/2000/svg">
<path d="M24.3916 21.0393C23.5815 20.3568 23.2074 20.1504 22.0889 19.4789C21.6229 19.1996 20.9127 18.9583 20.5401 18.9583C20.2856 18.9583 19.9808 19.1529 19.7942 19.3396C19.3158 19.8179 19.1591 20.4166 18.3205 20.4166C17.5002 20.4166 16.0674 19.5817 15.0393 18.5025C13.9601 17.4744 13.1252 16.0416 13.1252 15.2213C13.1252 14.3827 13.7129 14.215 14.1913 13.736C14.3779 13.55 14.5835 13.2452 14.5835 12.9908C14.5835 12.6181 14.3422 11.9189 14.0629 11.4529C13.3914 10.3337 13.1857 9.95961 12.5025 9.15023C12.2714 8.87606 12.0081 8.75065 11.7325 8.74992C11.2666 8.74919 10.6548 8.98034 10.2406 9.28877C9.61792 9.75325 8.96677 10.3854 8.7925 11.1729C8.76917 11.2801 8.75532 11.388 8.75094 11.496C8.7174 12.3163 9.03969 13.149 9.3875 13.8541C10.2064 15.5159 11.2899 17.1244 12.469 18.5609C12.8459 19.0202 13.2565 19.4475 13.6816 19.8602C14.0943 20.2846 14.5216 20.6951 14.9809 21.0728C16.4174 22.2519 18.0259 23.3354 19.6877 24.1543C20.3863 24.4985 21.2088 24.8149 22.021 24.7916C22.137 24.7879 22.2529 24.7748 22.3689 24.7493C23.1564 24.5758 23.7885 23.9239 24.253 23.3012C24.5615 22.887 24.7926 22.276 24.7919 21.8093C24.7912 21.5337 24.6657 21.2704 24.3916 21.0393ZM24.7919 17.4999C24.3894 17.4999 24.0627 17.1733 24.0627 16.7708V16.0416C24.0627 12.4235 21.1183 9.47909 17.5002 9.47909C17.0977 9.47909 16.771 9.15242 16.771 8.74992C16.771 8.34742 17.0977 8.02075 17.5002 8.02075C21.9226 8.02075 25.521 11.6192 25.521 16.0416V16.7708C25.521 17.1733 25.1944 17.4999 24.7919 17.4999ZM20.3133 16.0416C19.9896 16.0416 19.6935 15.8243 19.6082 15.4962C19.4084 14.7298 18.8105 14.1312 18.0471 13.9343C17.657 13.8329 17.4229 13.4355 17.5235 13.0454C17.6242 12.6561 18.0208 12.422 18.4124 12.5219C19.687 12.8522 20.6859 13.8504 21.0192 15.1279C21.1205 15.518 20.8872 15.9154 20.4978 16.0175C20.4358 16.0336 20.3739 16.0416 20.3133 16.0416Z" fill="#7E57C2"/>
<path d="M22.6041 16.7709C22.2016 16.7709 21.875 16.4443 21.875 16.0418C21.875 13.7172 20.0564 11.7995 17.7348 11.677C17.3323 11.6558 17.0238 11.3124 17.045 10.9106C17.0661 10.5081 17.4154 10.1989 17.8113 10.2208C20.9081 10.3842 23.3333 12.9413 23.3333 16.0418C23.3333 16.4443 23.0066 16.7709 22.6041 16.7709Z" fill="#7E57C2"/>
<path d="M17.5002 2.91675C14.219 2.91675 9.10604 3.21862 5.99104 6.06383C3.78895 8.25644 2.91687 11.3321 2.91687 15.3126C2.91687 15.6422 2.91541 16.0097 2.91833 16.4063C2.91541 16.8023 2.91687 17.1698 2.91687 17.4994C2.91687 21.4799 3.78895 24.5555 5.99104 26.7481C7.17666 27.8309 8.65541 28.5433 10.2085 29.0129V32.3569C10.2085 33.5206 10.9734 33.5417 11.1134 33.5417H11.12C11.4802 33.5403 11.7916 33.3638 12.1036 33.0867C12.221 32.9825 13.5766 31.4716 15.0509 29.8194C15.9288 29.8755 16.763 29.8959 17.4995 29.8959C20.7807 29.8959 25.8929 29.5933 29.0086 26.7481C31.21 24.5562 32.0828 21.4799 32.0828 17.4994C32.0828 17.1698 32.0843 16.8023 32.0813 16.4056C32.0843 16.0089 32.0828 15.6422 32.0828 15.3119C32.0828 11.3313 31.2107 8.25571 29.0086 6.0631C25.8936 3.21862 20.7815 2.91675 17.5002 2.91675ZM29.896 17.2456V17.4994C29.896 21.0766 29.1341 23.5142 27.5 25.1644C24.6694 27.7084 19.2772 27.7084 17.4995 27.7084C16.9584 27.7084 16.0805 27.7077 15.0444 27.6355C14.7563 27.9592 11.6669 31.4148 11.6669 31.4148V27.1397C10.1327 26.7714 8.61676 26.1677 7.50041 25.1651C5.86635 23.5142 5.10437 21.0766 5.10437 17.4994V17.2456C5.10437 16.9897 5.10364 16.7133 5.10583 16.3903C5.10364 16.0986 5.10364 15.823 5.10437 15.5663V15.3126C5.10437 11.7353 5.86635 9.29769 7.50041 7.64758C10.3303 5.10352 15.7232 5.10352 17.5002 5.10352C19.2772 5.10352 24.6694 5.10352 27.4993 7.64758C29.1341 9.29769 29.8953 11.7353 29.8953 15.3126V15.5663C29.8953 15.8223 29.896 16.0986 29.8938 16.4216C29.896 16.714 29.896 16.9897 29.896 17.2456Z" fill="#7E57C2"/>
</svg>
